<svg width="262" height="256" viewBox="0 0 262 256" fill="none" xmlns="http://www.w3.org/2000/svg">
<path d="M251 128C251 61.7258 197.274 8 131 8C64.7258 8 11 61.7258 11 128C11 194.274 64.7258 248 131 248C197.274 248 251 194.274 251 128Z" fill="#A93349"/>
<path d="M85.3341 79.4391V82.8471H90.8301V86.0151H85.3341V89.7111H91.5501V92.9991H81.2301V76.1511H91.5501V79.4391H85.3341ZM102.134 92.9991L99.5666 89.2791L97.4066 92.9991H92.9666L97.3826 86.1591L92.8466 79.6071H97.4546L100.023 83.3031L102.182 79.6071H106.622L102.134 86.3511L106.742 92.9991H102.134ZM112.428 81.5031C112.827 80.8791 113.379 80.3751 114.084 79.9911C114.788 79.6071 115.611 79.4151 116.556 79.4151C117.66 79.4151 118.659 79.6952 119.556 80.2551C120.452 80.8151 121.155 81.6152 121.668 82.6551C122.196 83.6951 122.46 84.9032 122.46 86.2791C122.46 87.6551 122.196 88.8711 121.668 89.9271C121.155 90.9671 120.452 91.7751 119.556 92.3511C118.659 92.9111 117.66 93.1911 116.556 93.1911C115.628 93.1911 114.804 92.9991 114.084 92.6151C113.379 92.2311 112.827 91.7351 112.428 91.1271V99.383H108.324V79.6071H112.428V81.5031ZM118.284 86.2791C118.284 85.2551 117.996 84.4551 117.42 83.8791C116.859 83.2871 116.163 82.9911 115.332 82.9911C114.516 82.9911 113.82 83.2871 113.244 83.8791C112.683 84.4712 112.404 85.2791 112.404 86.3031C112.404 87.3272 112.683 88.1351 113.244 88.7271C113.82 89.3192 114.516 89.6151 115.332 89.6151C116.148 89.6151 116.844 89.3192 117.42 88.7271C117.996 88.1192 118.284 87.3032 118.284 86.2791ZM137.237 86.0871C137.237 86.4711 137.213 86.8712 137.165 87.2871H127.877C127.941 88.1192 128.205 88.7591 128.669 89.2071C129.149 89.6391 129.732 89.8551 130.421 89.8551C131.445 89.8551 132.156 89.4231 132.557 88.5591H136.925C136.701 89.4392 136.293 90.2312 135.701 90.9351C135.125 91.6391 134.397 92.1911 133.517 92.5911C132.636 92.9912 131.652 93.1911 130.565 93.1911C129.252 93.1911 128.085 92.9111 127.061 92.3511C126.036 91.7912 125.237 90.9911 124.661 89.9511C124.085 88.9112 123.797 87.6951 123.797 86.3031C123.797 84.9111 124.077 83.6951 124.637 82.6551C125.213 81.6152 126.012 80.8151 127.037 80.2551C128.061 79.6952 129.237 79.4151 130.565 79.4151C131.861 79.4151 133.013 79.6871 134.021 80.2311C135.029 80.7752 135.813 81.5511 136.373 82.5591C136.949 83.5671 137.237 84.7431 137.237 86.0871ZM133.037 85.0071C133.037 84.3032 132.797 83.7431 132.317 83.3271C131.837 82.9112 131.237 82.7031 130.517 82.7031C129.828 82.7031 129.245 82.9031 128.765 83.3031C128.301 83.7032 128.013 84.2711 127.901 85.0071H133.037ZM147.561 79.4631C149.13 79.4631 150.378 79.9751 151.305 80.9991C152.25 82.0071 152.721 83.3991 152.721 85.1751V92.9991H148.641V85.7271C148.641 84.8312 148.41 84.1352 147.945 83.6391C147.482 83.1431 146.858 82.8951 146.073 82.8951C145.29 82.8951 144.666 83.1431 144.201 83.6391C143.738 84.1352 143.505 84.8312 143.505 85.7271V92.9991H139.401V79.6071H143.505V81.3831C143.922 80.7911 144.482 80.3271 145.185 79.9911C145.89 79.6391 146.682 79.4631 147.561 79.4631ZM161.022 93.1911C159.854 93.1911 158.814 92.9912 157.902 92.5911C156.99 92.1911 156.27 91.6472 155.742 90.9591C155.214 90.2552 154.917 89.4711 154.854 88.6071H158.91C158.958 89.0711 159.174 89.4471 159.558 89.7351C159.942 90.0231 160.413 90.1671 160.974 90.1671C161.486 90.1671 161.877 90.0711 162.15 89.8791C162.438 89.6711 162.582 89.4071 162.582 89.0871C162.582 88.7031 162.381 88.4231 161.982 88.2471C161.582 88.0551 160.934 87.8471 160.038 87.6231C159.078 87.3992 158.277 87.1671 157.638 86.9271C156.998 86.6711 156.446 86.2791 155.982 85.7511C155.517 85.2071 155.286 84.4791 155.286 83.5671C155.286 82.7991 155.493 82.1031 155.91 81.4791C156.342 80.8391 156.966 80.3351 157.782 79.9671C158.613 79.5992 159.597 79.4151 160.734 79.4151C162.414 79.4151 163.734 79.8311 164.694 80.6631C165.669 81.4952 166.23 82.5992 166.374 83.9751H162.582C162.518 83.5112 162.309 83.1431 161.958 82.8711C161.622 82.5992 161.174 82.4631 160.614 82.4631C160.134 82.4631 159.765 82.5591 159.51 82.7511C159.254 82.9271 159.126 83.1752 159.126 83.4951C159.126 83.8791 159.326 84.1671 159.726 84.3591C160.142 84.5511 160.782 84.7431 161.646 84.9351C162.638 85.1912 163.446 85.4471 164.07 85.7031C164.694 85.9431 165.237 86.3432 165.702 86.9031C166.182 87.4472 166.43 88.1831 166.446 89.1111C166.446 89.8952 166.221 90.5991 165.774 91.2231C165.342 91.8311 164.709 92.3111 163.878 92.6631C163.062 93.0152 162.11 93.1911 161.022 93.1911ZM181.58 86.0871C181.58 86.4711 181.557 86.8712 181.509 87.2871H172.221C172.284 88.1192 172.548 88.7591 173.013 89.2071C173.493 89.6391 174.077 89.8551 174.765 89.8551C175.788 89.8551 176.501 89.4231 176.901 88.5591H181.269C181.044 89.4392 180.636 90.2312 180.045 90.9351C179.469 91.6391 178.74 92.1911 177.861 92.5911C176.981 92.9912 175.997 93.1911 174.909 93.1911C173.597 93.1911 172.428 92.9111 171.405 92.3511C170.381 91.7912 169.581 90.9911 169.005 89.9511C168.429 88.9112 168.141 87.6951 168.141 86.3031C168.141 84.9111 168.42 83.6951 168.981 82.6551C169.557 81.6152 170.357 80.8151 171.381 80.2551C172.404 79.6952 173.58 79.4151 174.909 79.4151C176.205 79.4151 177.357 79.6871 178.365 80.2311C179.373 80.7752 180.156 81.5511 180.717 82.5591C181.293 83.5671 181.58 84.7431 181.58 86.0871ZM177.381 85.0071C177.381 84.3032 177.141 83.7431 176.661 83.3271C176.181 82.9112 175.581 82.7031 174.861 82.7031C174.173 82.7031 173.589 82.9031 173.109 83.3031C172.644 83.7032 172.356 84.2711 172.245 85.0071H177.381ZM97.0299 112.151V115.439H92.5659V128.999H88.4619V115.439H83.9979V112.151H97.0299ZM103.193 117.839C103.673 117.102 104.273 116.526 104.993 116.111C105.713 115.679 106.514 115.463 107.393 115.463V119.807H106.265C105.242 119.807 104.474 120.03 103.961 120.479C103.449 120.911 103.193 121.679 103.193 122.783V128.999H99.0896V115.607H103.193V117.839ZM108.539 122.279C108.539 120.903 108.795 119.694 109.307 118.655C109.835 117.615 110.547 116.814 111.443 116.255C112.338 115.695 113.339 115.415 114.443 115.415C115.386 115.415 116.211 115.607 116.915 115.991C117.635 116.375 118.187 116.879 118.571 117.503V115.607H122.675V128.999H118.571V127.103C118.17 127.727 117.611 128.231 116.891 128.615C116.187 128.999 115.362 129.191 114.419 129.191C113.331 129.191 112.338 128.91 111.443 128.351C110.547 127.775 109.835 126.966 109.307 125.927C108.795 124.871 108.539 123.654 108.539 122.279ZM118.571 122.303C118.571 121.278 118.283 120.471 117.707 119.879C117.147 119.286 116.459 118.991 115.643 118.991C114.827 118.991 114.131 119.286 113.555 119.879C112.995 120.455 112.715 121.254 112.715 122.279C112.715 123.303 112.995 124.119 113.555 124.727C114.131 125.319 114.827 125.615 115.643 125.615C116.459 125.615 117.147 125.319 117.707 124.727C118.283 124.134 118.571 123.327 118.571 122.303ZM124.829 122.303C124.829 120.911 125.108 119.694 125.669 118.655C126.245 117.615 127.037 116.814 128.045 116.255C129.068 115.695 130.236 115.415 131.549 115.415C133.229 115.415 134.628 115.854 135.749 116.735C136.884 117.615 137.628 118.854 137.981 120.455H133.613C133.244 119.43 132.533 118.919 131.477 118.919C130.724 118.919 130.124 119.214 129.677 119.807C129.228 120.383 129.005 121.215 129.005 122.303C129.005 123.39 129.228 124.23 129.677 124.823C130.124 125.399 130.724 125.687 131.477 125.687C132.533 125.687 133.244 125.175 133.613 124.151H137.981C137.628 125.718 136.884 126.951 135.749 127.847C134.612 128.742 133.212 129.191 131.549 129.191C130.236 129.191 129.068 128.91 128.045 128.351C127.037 127.791 126.245 126.99 125.669 125.951C125.108 124.911 124.829 123.695 124.829 122.303ZM148.359 128.999L144.279 123.383V128.999H140.175V111.239H144.279V121.055L148.335 115.607H153.399L147.831 122.327L153.447 128.999H148.359ZM167.636 122.087C167.636 122.471 167.612 122.871 167.564 123.287H158.276C158.339 124.119 158.603 124.758 159.068 125.207C159.548 125.639 160.131 125.855 160.82 125.855C161.843 125.855 162.555 125.423 162.956 124.559H167.324C167.099 125.439 166.691 126.231 166.1 126.935C165.524 127.638 164.795 128.19 163.916 128.591C163.035 128.991 162.051 129.191 160.964 129.191C159.651 129.191 158.483 128.91 157.46 128.351C156.435 127.791 155.636 126.99 155.06 125.951C154.484 124.911 154.196 123.695 154.196 122.303C154.196 120.911 154.475 119.694 155.036 118.655C155.612 117.615 156.411 116.814 157.436 116.255C158.459 115.695 159.635 115.415 160.964 115.415C162.26 115.415 163.412 115.686 164.42 116.231C165.428 116.775 166.211 117.551 166.772 118.559C167.348 119.567 167.636 120.743 167.636 122.087ZM163.436 121.007C163.436 120.303 163.196 119.742 162.716 119.327C162.236 118.911 161.636 118.703 160.916 118.703C160.227 118.703 159.644 118.902 159.164 119.303C158.699 119.703 158.411 120.27 158.3 121.007H163.436ZM173.904 117.839C174.384 117.102 174.984 116.526 175.704 116.111C176.424 115.679 177.224 115.463 178.104 115.463V119.807H176.976C175.952 119.807 175.184 120.03 174.672 120.479C174.161 120.911 173.904 121.679 173.904 122.783V128.999H169.8V115.607H173.904V117.839Z" fill="white"/>
<path d="M97.5953 190.001C97.5953 194.418 101.177 198.001 105.594 198.001C110.013 198.001 113.595 194.418 113.595 190.001C113.595 185.582 110.013 182.002 105.594 182.002C101.177 182.002 97.5953 185.582 97.5953 190.001ZM156.338 174.153C157.143 174.348 157.953 173.855 158.15 173.049L161.336 159.93C161.531 159.126 161.037 158.315 160.232 158.12C159.426 157.923 158.615 158.418 158.42 159.222L155.588 170.883L143.927 168.051C143.121 167.856 142.311 168.35 142.115 169.155C141.92 169.961 142.413 170.772 143.219 170.967L156.338 174.153ZM107.094 190.013C107.169 180.743 106.941 174.295 106.847 170.212C106.799 168.143 106.788 166.756 106.854 165.896C106.871 165.688 106.89 165.533 106.91 165.421C106.931 165.301 106.946 165.264 106.94 165.279C106.94 165.279 106.88 165.443 106.692 165.611C106.457 165.82 106.127 165.939 105.788 165.915C105.512 165.894 105.35 165.788 105.333 165.777C105.306 165.759 105.327 165.768 105.401 165.843C105.551 165.993 105.77 166.257 106.08 166.677C106.7 167.519 107.507 168.734 108.617 170.355C110.81 173.559 114.026 178.111 118.695 183.485L120.96 181.517C116.396 176.264 113.253 171.818 111.092 168.66C110.025 167.102 109.155 165.794 108.494 164.897C108.162 164.449 107.838 164.039 107.529 163.728C107.373 163.572 107.186 163.403 106.97 163.263C106.766 163.13 106.433 162.954 106.007 162.923C105.515 162.887 105.053 163.053 104.699 163.367C104.393 163.64 104.232 163.964 104.144 164.19C103.971 164.633 103.902 165.167 103.863 165.663C103.784 166.704 103.8 168.252 103.848 170.28C103.943 174.39 104.169 180.777 104.096 189.989L107.094 190.013ZM118.695 183.485C119.639 184.569 120.452 185.429 121.149 186.078C121.829 186.711 122.471 187.214 123.071 187.509C123.618 187.779 124.604 188.094 125.501 187.454C126.284 186.894 126.426 185.978 126.465 185.486C126.552 184.375 126.261 182.808 125.892 181.226C125.508 179.583 124.977 177.681 124.464 175.812C123.947 173.924 123.444 172.062 123.095 170.433C122.735 168.755 122.58 167.51 122.652 166.781C122.69 166.398 122.766 166.434 122.637 166.569C122.397 166.82 122.121 166.767 122.186 166.782C122.321 166.811 122.666 166.947 123.278 167.384C123.866 167.802 124.611 168.434 125.535 169.328L127.622 167.173C126.636 166.22 125.774 165.479 125.019 164.94C124.287 164.418 123.552 164.012 122.834 163.853C122.046 163.677 121.143 163.79 120.465 164.499C119.898 165.095 119.726 165.883 119.667 166.487C119.544 167.729 119.802 169.386 120.162 171.062C120.531 172.787 121.056 174.728 121.572 176.607C122.093 178.505 122.604 180.336 122.97 181.908C123.351 183.54 123.519 184.67 123.474 185.252C123.446 185.607 123.375 185.286 123.758 185.013C124.256 184.656 124.658 184.947 124.397 184.818C124.191 184.716 123.804 184.451 123.194 183.882C122.601 183.332 121.865 182.558 120.96 181.517L118.695 183.485ZM125.535 169.328C127.257 170.996 128.912 171.998 130.559 172.353C132.248 172.718 133.752 172.362 135.065 171.657C136.335 170.973 137.445 169.95 138.426 168.939C138.921 168.428 139.409 167.892 139.874 167.384C140.346 166.868 140.801 166.376 141.257 165.915C143.151 164.006 144.621 163.151 146.345 163.634C147.3 163.902 148.523 164.622 150.059 166.196C151.589 167.763 153.356 170.103 155.411 173.475L157.973 171.915C155.853 168.437 153.953 165.89 152.205 164.1C150.464 162.315 148.803 161.207 147.155 160.745C143.675 159.77 141.069 161.846 139.127 163.803C138.623 164.31 138.132 164.844 137.661 165.357C137.184 165.879 136.73 166.377 136.271 166.851C135.344 167.808 134.493 168.558 133.643 169.016C132.834 169.451 132.056 169.607 131.19 169.421C130.283 169.224 129.11 168.614 127.622 167.173L125.535 169.328Z" fill="white"/>
</svg>
